<svg xmlns="http://www.w3.org/2000/svg" xmlns:xlink="http://www.w3.org/1999/xlink" viewBox="0 0 529.35 529.35"><defs><style>.cls-1,.cls-4,.cls-5,.cls-6{fill:none;}.cls-2{clip-path:url(#clip-path);}.cls-3{clip-path:url(#clip-path-2);}.cls-4,.cls-5,.cls-6{stroke-linecap:round;stroke-linejoin:round;stroke-width:1.4px;}.cls-4{stroke:url(#新建渐变色板_5);}.cls-5{stroke:url(#橙色_黄色);}.cls-6{stroke:url(#橙色_黄色-2);}</style><clipPath id="clip-path" transform="translate(-273.96 -430.19)"><rect class="cls-1" width="966.31" height="1367.45"/></clipPath><clipPath id="clip-path-2" transform="translate(-273.96 -430.19)"><polyline class="cls-1" points="25.98 1065.06 939.22 1065.06 939.22 304.02 25.98 304.02 25.98 1065.06"/></clipPath><linearGradient id="新建渐变色板_5" x1="273.96" y1="694.87" x2="803.31" y2="694.87" gradientUnits="userSpaceOnUse"><stop offset="0" stop-color="#ff0043"/><stop offset="1" stop-color="#729ff4"/></linearGradient><linearGradient id="橙色_黄色" x1="704.72" y1="773.52" x2="786.35" y2="773.52" gradientUnits="userSpaceOnUse"><stop offset="0" stop-color="#fff11d"/><stop offset="0.01" stop-color="#ffee1b"/><stop offset="0.1" stop-color="#fddb0c"/><stop offset="0.19" stop-color="#fbd003"/><stop offset="0.28" stop-color="#fbcc00"/><stop offset="0.67" stop-color="#f0932e"/><stop offset="0.89" stop-color="#e9652d"/><stop offset="1" stop-color="#e4352b"/></linearGradient><linearGradient id="橙色_黄色-2" x1="610.47" y1="916.18" x2="664.09" y2="916.18" xlink:href="#橙色_黄色"/></defs><title>资源 1</title><g id="图层_2" data-name="图层 2"><g id="图层_1-2" data-name="图层 1"><g class="cls-2"><g class="cls-3"><path class="cls-4" d="M538.63,430.89c-145.78,0-264,118.19-264,264s118.19,264,264,264,264-118.18,264-264-118.19-264-264-264" transform="translate(-273.96 -430.19)"/><path class="cls-5" d="M705.42,874.44A243.7,243.7,0,0,0,784.74,672.6" transform="translate(-273.96 -430.19)"/><path class="cls-6" d="M611.17,927.37A243.9,243.9,0,0,0,663.39,905" transform="translate(-273.96 -430.19)"/></g></g></g></g></svg>