<svg xmlns="http://www.w3.org/2000/svg" viewBox="0 0 49.97 41.05"><defs><style>.cls-1{fill:#a1120a;}.cls-2{stroke:#a1120a;stroke-miterlimit:10;stroke-width:0.14px;}</style></defs><title>love</title><g id="图层_2" data-name="图层 2"><g id="图层_1-2" data-name="图层 1"><path class="cls-1" d="M32.52,8.1,49.44,32.7l-3.06,1.53-8.8-1.1L32.81,41h0l-.19-24.13a11.44,11.44,0,0,0,.72-4.63,14.79,14.79,0,0,0-.78-4Z" transform="translate(-7.75 -0.04)"/><polygon class="cls-1" points="38.63 34.2 26.39 40.32 25.02 40.96 25.02 40.91 25.06 40.91 29.83 33.1 38.63 34.2"/><polygon class="cls-1" points="26.39 40.32 25.02 41 25.02 40.96 26.39 40.32"/><path class="cls-1" d="M33.3,12.19a11.44,11.44,0,0,1-.72,4.63l-.06-8.63A14.79,14.79,0,0,1,33.3,12.19Z" transform="translate(-7.75 -0.04)"/><path class="cls-1" d="M32.77,41v0l-.11.06L32.59,41l-12.11-5.8a16.24,16.24,0,0,0,6.16.81l-1.95-13a9.29,9.29,0,0,0,7.89-6.26L32.77,41Z" transform="translate(-7.75 -0.04)"/><path class="cls-1" d="M32.52,8.19l.06,8.63a9.29,9.29,0,0,1-7.89,6.26l-.25-1.69L32.5,8.13A.14.14,0,0,0,32.52,8.19Z" transform="translate(-7.75 -0.04)"/><path class="cls-1" d="M32.52,8.19a.14.14,0,0,1,0-.06l0,0Z" transform="translate(-7.75 -0.04)"/><path class="cls-1" d="M32.5,8.13,24.44,21.39l-.55-3.62a4.08,4.08,0,0,0,3.53-4.46,4.92,4.92,0,0,0-5-5c-3.23.2-5.7,3.32-5.51,7,.21,4.07,3,7.28,6.47,7.73L17,33.57l3.45,1.65c-7-2.37-12.26-9.45-12.71-18.15C7.32,8.19,13.34.57,21.22.06,26.26-.27,30.72,3.13,32.5,8.13Z" transform="translate(-7.75 -0.04)"/><path class="cls-1" d="M27.42,13.31a4.08,4.08,0,0,1-3.53,4.46l-.91-6a2.61,2.61,0,0,0-2.26,2.85,3.16,3.16,0,0,0,3.17,3.18l.55,3.62-1,1.65C20,22.59,17.17,19.38,17,15.31c-.19-3.64,2.28-6.76,5.51-7A4.92,4.92,0,0,1,27.42,13.31Z" transform="translate(-7.75 -0.04)"/><path class="cls-1" d="M24.69,23.08l1.95,13a16.24,16.24,0,0,1-6.16-.81L17,33.57,23.43,23A6.59,6.59,0,0,0,24.69,23.08Z" transform="translate(-7.75 -0.04)"/><path class="cls-1" d="M24.44,21.39l.25,1.69a6.59,6.59,0,0,1-1.26,0Z" transform="translate(-7.75 -0.04)"/><path class="cls-1" d="M23,11.74l.91,6a3.16,3.16,0,0,1-3.17-3.18A2.61,2.61,0,0,1,23,11.74Z" transform="translate(-7.75 -0.04)"/><line class="cls-2" x1="24.98" y1="40.98" x2="11.1" y2="34.47"/><path class="cls-1" d="M33,8.1,16,32.7l3.07,1.53,8.8-1.1L32.66,41h0l.19-24.13a11.61,11.61,0,0,1-.71-4.63,14.06,14.06,0,0,1,.78-4Z" transform="translate(-7.75 -0.04)"/><polygon class="cls-1" points="11.34 34.2 23.58 40.32 24.95 40.96 24.95 40.91 24.91 40.91 20.14 33.1 11.34 34.2"/><polygon class="cls-1" points="23.58 40.32 24.95 41 24.95 40.96 23.58 40.32"/><path class="cls-1" d="M32.17,12.19a11.61,11.61,0,0,0,.71,4.63L33,8.19A14.06,14.06,0,0,0,32.17,12.19Z" transform="translate(-7.75 -0.04)"/><path class="cls-1" d="M32.69,41v0l.12.06.07-.07L45,35.22a16.27,16.27,0,0,1-6.16.81l2-13a9.3,9.3,0,0,1-7.9-6.26L32.69,41Z" transform="translate(-7.75 -0.04)"/><path class="cls-1" d="M33,8.19l-.07,8.63a9.3,9.3,0,0,0,7.9,6.26L41,21.39,33,8.13Z" transform="translate(-7.75 -0.04)"/><path class="cls-1" d="M33,8.19l0-.06,0,0Z" transform="translate(-7.75 -0.04)"/><path class="cls-1" d="M33,8.13,41,21.39l.55-3.62a4.07,4.07,0,0,1-3.53-4.46c.15-2.91,2.36-5.13,5-5,3.22.2,5.69,3.32,5.51,7-.21,4.07-3,7.28-6.48,7.73l6.4,10.53L45,35.22c7-2.37,12.26-9.45,12.7-18.15.46-8.88-5.56-16.5-13.45-17C39.21-.27,34.75,3.13,33,8.13Z" transform="translate(-7.75 -0.04)"/><path class="cls-1" d="M38.05,13.31a4.07,4.07,0,0,0,3.53,4.46l.9-6a2.59,2.59,0,0,1,2.26,2.85,3.14,3.14,0,0,1-3.16,3.18L41,21.39,42,23c3.48-.45,6.27-3.66,6.48-7.73.18-3.64-2.29-6.76-5.51-7C40.41,8.18,38.2,10.4,38.05,13.31Z" transform="translate(-7.75 -0.04)"/><path class="cls-1" d="M40.78,23.08l-2,13A16.27,16.27,0,0,0,45,35.22l3.44-1.65L42,23A6.51,6.51,0,0,1,40.78,23.08Z" transform="translate(-7.75 -0.04)"/><path class="cls-1" d="M41,21.39l-.25,1.69A6.51,6.51,0,0,0,42,23Z" transform="translate(-7.75 -0.04)"/><path class="cls-1" d="M42.48,11.74l-.9,6a3.14,3.14,0,0,0,3.16-3.18A2.59,2.59,0,0,0,42.48,11.74Z" transform="translate(-7.75 -0.04)"/><line class="cls-2" x1="24.98" y1="40.98" x2="38.87" y2="34.47"/></g></g></svg>